<?xml version="1.0" encoding="UTF-8"?>
<svg width="700pt" height="700pt" version="1.1" viewBox="0 0 700 700" xmlns="http://www.w3.org/2000/svg" xmlns:xlink="http://www.w3.org/1999/xlink">
 <defs>
  <symbol id="v" overflow="visible">
   <path d="m4.6406-0.28125c-0.24219 0.125-0.49219 0.21875-0.75 0.28125-0.26172 0.0625-0.53125 0.09375-0.8125 0.09375-0.84375 0-1.5117-0.23438-2-0.70312-0.49219-0.46875-0.73438-1.1016-0.73438-1.9062 0-0.8125 0.24219-1.4531 0.73438-1.9219 0.48828-0.46875 1.1562-0.70312 2-0.70312 0.28125 0 0.55078 0.03125 0.8125 0.09375 0.25781 0.0625 0.50781 0.15625 0.75 0.28125v1.0469c-0.24219-0.16406-0.48047-0.28516-0.71875-0.35938-0.23047-0.070313-0.47656-0.10938-0.73438-0.10938-0.46875 0-0.83984 0.15234-1.1094 0.45312-0.26172 0.29297-0.39062 0.69922-0.39062 1.2188 0 0.52344 0.12891 0.93359 0.39062 1.2344 0.26953 0.29297 0.64062 0.4375 1.1094 0.4375 0.25781 0 0.50391-0.035156 0.73438-0.10938 0.23828-0.082031 0.47656-0.20703 0.71875-0.375z"/>
  </symbol>
  <symbol id="d" overflow="visible">
   <path d="m3.3906-2.75c-0.10547-0.050781-0.21094-0.085938-0.3125-0.10938-0.10547-0.03125-0.21094-0.046875-0.3125-0.046875-0.3125 0-0.55469 0.10547-0.71875 0.3125-0.16797 0.19922-0.25 0.48047-0.25 0.84375v1.75h-1.2188v-3.7812h1.2188v0.625c0.15625-0.25 0.33203-0.42969 0.53125-0.54688 0.19531-0.11328 0.4375-0.17188 0.71875-0.17188 0.039063 0 0.082031 0.007812 0.125 0.015625 0.050781 0 0.125 0.007813 0.21875 0.015625z"/>
  </symbol>
  <symbol id="b" overflow="visible">
   <path d="m4.3594-1.9062v0.34375h-2.8281c0.03125 0.29297 0.13281 0.51172 0.3125 0.65625 0.17578 0.13672 0.42188 0.20312 0.73438 0.20312 0.25 0 0.50781-0.035156 0.78125-0.10938 0.26953-0.082031 0.54688-0.19531 0.82812-0.34375v0.92188c-0.29297 0.11719-0.58594 0.19922-0.875 0.25-0.28125 0.050781-0.5625 0.078125-0.84375 0.078125-0.6875 0-1.2266-0.17188-1.6094-0.51562-0.375-0.35156-0.5625-0.84375-0.5625-1.4688 0-0.61328 0.1875-1.0977 0.5625-1.4531 0.375-0.35156 0.88281-0.53125 1.5312-0.53125 0.59375 0 1.0664 0.18359 1.4219 0.54688 0.36328 0.35547 0.54688 0.82812 0.54688 1.4219zm-1.25-0.40625c0-0.22656-0.070313-0.41016-0.20312-0.54688-0.125-0.14453-0.29688-0.21875-0.51562-0.21875-0.24219 0-0.43359 0.070313-0.57812 0.20312-0.14844 0.13672-0.23438 0.32422-0.26562 0.5625z"/>
  </symbol>
  <symbol id="l" overflow="visible">
   <path d="m2.2812-1.7031c-0.25 0-0.44531 0.042969-0.57812 0.125-0.125 0.085937-0.1875 0.21094-0.1875 0.375 0 0.15625 0.050781 0.28125 0.15625 0.375 0.10156 0.085937 0.24219 0.125 0.42188 0.125 0.22656 0 0.42188-0.082031 0.57812-0.25 0.15625-0.16406 0.23438-0.36719 0.23438-0.60938v-0.14062zm1.8438-0.45312v2.1562h-1.2188v-0.5625c-0.16797 0.23047-0.35156 0.39844-0.54688 0.5-0.19922 0.10156-0.44531 0.15625-0.73438 0.15625-0.39844 0-0.71875-0.11328-0.96875-0.34375-0.24219-0.22656-0.35938-0.52344-0.35938-0.89062 0-0.4375 0.14844-0.75781 0.45312-0.96875 0.3125-0.20703 0.78906-0.3125 1.4375-0.3125h0.71875v-0.09375c0-0.19531-0.078125-0.33594-0.23438-0.42188-0.14844-0.09375-0.38281-0.14062-0.70312-0.14062-0.26172 0-0.5 0.027344-0.71875 0.078125-0.21875 0.054688-0.42969 0.13281-0.625 0.23438v-0.92188c0.25781-0.0625 0.51953-0.10938 0.78125-0.14062 0.25781-0.03125 0.51953-0.046875 0.78125-0.046875 0.6875 0 1.1797 0.13672 1.4844 0.40625 0.30078 0.27344 0.45312 0.71094 0.45312 1.3125z"/>
  </symbol>
  <symbol id="a" overflow="visible">
   <path d="m1.9062-4.8594v1.0781h1.25v0.85938h-1.25v1.6094c0 0.17969 0.03125 0.29688 0.09375 0.35938 0.070312 0.0625 0.21094 0.09375 0.42188 0.09375h0.625v0.85938h-1.0469c-0.46875 0-0.80859-0.097656-1.0156-0.29688-0.19922-0.19531-0.29688-0.53516-0.29688-1.0156v-1.6094h-0.59375v-0.85938h0.59375v-1.0781z"/>
  </symbol>
  <symbol id="f" overflow="visible">
   <path d="m3.1562-3.2344v-2.0312h1.2188v5.2656h-1.2188v-0.54688c-0.16797 0.21875-0.35156 0.38281-0.54688 0.48438-0.19922 0.10156-0.43359 0.15625-0.70312 0.15625-0.46875 0-0.85547-0.17969-1.1562-0.54688-0.29297-0.375-0.4375-0.85156-0.4375-1.4375 0-0.58203 0.14453-1.0547 0.4375-1.4219 0.30078-0.375 0.6875-0.5625 1.1562-0.5625 0.25781 0 0.48828 0.054688 0.6875 0.15625 0.20703 0.10547 0.39453 0.26562 0.5625 0.48438zm-0.79688 2.4531c0.25781 0 0.45703-0.09375 0.59375-0.28125 0.13281-0.1875 0.20312-0.46094 0.20312-0.82812 0-0.36328-0.070312-0.64062-0.20312-0.82812-0.13672-0.1875-0.33594-0.28125-0.59375-0.28125-0.26172 0-0.46094 0.09375-0.59375 0.28125-0.13672 0.1875-0.20312 0.46484-0.20312 0.82812 0 0.36719 0.066406 0.64062 0.20312 0.82812 0.13281 0.1875 0.33203 0.28125 0.59375 0.28125z"/>
  </symbol>
  <symbol id="k" overflow="visible">
   <path d="m2.5938-0.78125c0.25781 0 0.45703-0.09375 0.59375-0.28125 0.13281-0.1875 0.20312-0.46094 0.20312-0.82812 0-0.36328-0.070313-0.64062-0.20312-0.82812-0.13672-0.1875-0.33594-0.28125-0.59375-0.28125-0.26172 0-0.46094 0.10156-0.59375 0.29688-0.13672 0.1875-0.20312 0.46094-0.20312 0.8125 0 0.35547 0.066406 0.63281 0.20312 0.82812 0.13281 0.1875 0.33203 0.28125 0.59375 0.28125zm-0.79688-2.4531c0.16406-0.21875 0.34766-0.37891 0.54688-0.48438 0.20703-0.10156 0.44141-0.15625 0.70312-0.15625 0.46875 0 0.84766 0.1875 1.1406 0.5625 0.30078 0.36719 0.45312 0.83984 0.45312 1.4219 0 0.58594-0.15234 1.0625-0.45312 1.4375-0.29297 0.36719-0.67188 0.54688-1.1406 0.54688-0.26172 0-0.49609-0.054688-0.70312-0.15625-0.19922-0.10156-0.38281-0.26562-0.54688-0.48438v0.54688h-1.2188v-5.2656h1.2188z"/>
  </symbol>
  <symbol id="e" overflow="visible">
   <path d="m0.078125-3.7812h1.2188l1.0156 2.5625 0.85938-2.5625h1.2188l-1.5938 4.1406c-0.15625 0.41406-0.34375 0.70703-0.5625 0.875-0.21094 0.17578-0.49219 0.26562-0.84375 0.26562h-0.70312v-0.79688h0.39062c0.19531 0 0.34375-0.039063 0.4375-0.10938 0.09375-0.0625 0.16406-0.17969 0.21875-0.34375l0.03125-0.10938z"/>
  </symbol>
  <symbol id="j" overflow="visible">
   <path d="m3.7031-0.92188h-2.0469l-0.3125 0.92188h-1.3125l1.875-5.0469h1.5469l1.875 5.0469h-1.3125zm-1.7188-0.9375h1.3906l-0.6875-2z"/>
  </symbol>
  <symbol id="i" overflow="visible">
   <path d="m4.0938-3.1562c0.14453-0.23828 0.32031-0.41406 0.53125-0.53125 0.21875-0.125 0.45312-0.1875 0.70312-0.1875 0.4375 0 0.76953 0.13672 1 0.40625 0.22656 0.26172 0.34375 0.64844 0.34375 1.1562v2.3125h-1.2188v-1.9688-0.09375-0.14062c0-0.26953-0.042969-0.46094-0.125-0.57812-0.074219-0.125-0.19922-0.1875-0.375-0.1875-0.23047 0-0.40625 0.10156-0.53125 0.29688-0.125 0.1875-0.1875 0.46094-0.1875 0.8125v1.8594h-1.2188v-1.9688c0-0.42578-0.039063-0.69531-0.10938-0.8125-0.074219-0.125-0.20312-0.1875-0.39062-0.1875-0.23047 0-0.40625 0.10156-0.53125 0.29688-0.125 0.1875-0.1875 0.46094-0.1875 0.8125v1.8594h-1.2188v-3.7812h1.2188v0.54688c0.14453-0.20703 0.3125-0.36328 0.5-0.46875 0.19531-0.11328 0.41016-0.17188 0.64062-0.17188 0.25781 0 0.48828 0.0625 0.6875 0.1875 0.20703 0.125 0.36328 0.30469 0.46875 0.53125z"/>
  </symbol>
  <symbol id="h" overflow="visible">
   <path d="m4.3906-2.3125v2.3125h-1.2188v-1.75c0-0.33203-0.011719-0.5625-0.03125-0.6875-0.011719-0.125-0.03125-0.21875-0.0625-0.28125-0.054687-0.070312-0.12109-0.12891-0.20312-0.17188-0.074219-0.050781-0.16406-0.078125-0.26562-0.078125-0.26172 0-0.46484 0.10156-0.60938 0.29688-0.13672 0.19922-0.20312 0.46875-0.20312 0.8125v1.8594h-1.2188v-5.2656h1.2188v2.0312c0.17578-0.21875 0.36719-0.37891 0.57812-0.48438 0.20703-0.10156 0.42969-0.15625 0.67188-0.15625 0.4375 0 0.76953 0.13672 1 0.40625 0.22656 0.26172 0.34375 0.64844 0.34375 1.1562z"/>
  </symbol>
  <symbol id="u" overflow="visible">
   <path d="m3.5312-3.6719v0.92188c-0.25-0.10156-0.5-0.17969-0.75-0.23438-0.24219-0.0625-0.46484-0.09375-0.67188-0.09375-0.23047 0-0.40234 0.03125-0.51562 0.09375-0.11719 0.054687-0.17188 0.14062-0.17188 0.26562 0 0.09375 0.039063 0.16797 0.125 0.21875 0.09375 0.054688 0.24219 0.09375 0.45312 0.125l0.21875 0.015625c0.625 0.085937 1.0391 0.21875 1.25 0.40625 0.21875 0.17969 0.32812 0.46094 0.32812 0.84375 0 0.39844-0.15234 0.69922-0.45312 0.90625-0.29297 0.19922-0.73438 0.29688-1.3281 0.29688-0.25 0-0.51172-0.023438-0.78125-0.0625-0.26172-0.03125-0.53125-0.085938-0.8125-0.17188v-0.92188c0.23828 0.125 0.48438 0.21875 0.73438 0.28125 0.25 0.054688 0.50781 0.078125 0.78125 0.078125 0.22656 0 0.39844-0.03125 0.51562-0.09375 0.125-0.070313 0.1875-0.17188 0.1875-0.29688 0-0.10156-0.042969-0.17969-0.125-0.23438-0.085937-0.0625-0.24609-0.10156-0.48438-0.125l-0.21875-0.03125c-0.54297-0.070313-0.92188-0.19531-1.1406-0.375-0.21094-0.1875-0.3125-0.46094-0.3125-0.82812 0-0.40625 0.13281-0.70312 0.40625-0.89062 0.28125-0.19531 0.70312-0.29688 1.2656-0.29688 0.22656 0 0.46094 0.015625 0.70312 0.046875 0.25 0.03125 0.51562 0.085937 0.79688 0.15625z"/>
  </symbol>
  <symbol id="t" overflow="visible">
   <path d="m4.1406-4.8906v1.0781c-0.27344-0.125-0.54297-0.21875-0.8125-0.28125-0.26172-0.0625-0.50781-0.09375-0.73438-0.09375-0.3125 0-0.54688 0.042969-0.70312 0.125-0.14844 0.085938-0.21875 0.21484-0.21875 0.39062 0 0.13672 0.050781 0.24609 0.15625 0.32812 0.10156 0.074219 0.28516 0.13672 0.54688 0.1875l0.54688 0.10938c0.5625 0.11719 0.96094 0.28906 1.2031 0.51562 0.23828 0.23047 0.35938 0.55859 0.35938 0.98438 0 0.55469-0.16797 0.96484-0.5 1.2344-0.33594 0.27344-0.83984 0.40625-1.5156 0.40625-0.32422 0-0.64844-0.03125-0.96875-0.09375-0.3125-0.050781-0.63281-0.14062-0.95312-0.26562v-1.0938c0.32031 0.16797 0.62891 0.29688 0.92188 0.39062 0.30078 0.085938 0.59375 0.125 0.875 0.125s0.49219-0.046875 0.64062-0.14062c0.15625-0.09375 0.23438-0.22656 0.23438-0.40625 0-0.15625-0.054688-0.27344-0.15625-0.35938-0.09375-0.09375-0.29688-0.17188-0.60938-0.23438l-0.5-0.10938c-0.5-0.11328-0.87109-0.28516-1.1094-0.51562-0.23047-0.23828-0.34375-0.5625-0.34375-0.96875 0-0.5 0.16016-0.88281 0.48438-1.1562 0.32031-0.26953 0.78516-0.40625 1.3906-0.40625 0.28125 0 0.56641 0.023437 0.85938 0.0625 0.28906 0.042969 0.59375 0.10547 0.90625 0.1875z"/>
  </symbol>
  <symbol id="g" overflow="visible">
   <path d="m0.54688-1.4688v-2.3125h1.2031v0.375 0.78125 0.60938c0 0.30469 0.003906 0.52344 0.015625 0.65625 0.019531 0.13672 0.050781 0.23438 0.09375 0.29688 0.050781 0.074219 0.11328 0.13672 0.1875 0.1875 0.082031 0.042969 0.17578 0.0625 0.28125 0.0625 0.25 0 0.44531-0.097656 0.59375-0.29688 0.14453-0.19531 0.21875-0.46875 0.21875-0.8125v-1.8594h1.2031v3.7812h-1.2031v-0.54688c-0.1875 0.21875-0.38672 0.38281-0.59375 0.48438-0.19922 0.10156-0.42188 0.15625-0.67188 0.15625-0.42969 0-0.75781-0.12891-0.98438-0.39062-0.23047-0.26953-0.34375-0.66016-0.34375-1.1719z"/>
  </symbol>
  <symbol id="s" overflow="visible">
   <path d="m0.57812-3.7812h1.2188v3.7812h-1.2188zm0-1.4844h1.2188v1h-1.2188z"/>
  </symbol>
  <symbol id="c" overflow="visible">
   <path d="m2.375-3.0156c-0.26172 0-0.46484 0.10156-0.60938 0.29688-0.13672 0.1875-0.20312 0.46484-0.20312 0.82812 0 0.36719 0.066406 0.64844 0.20312 0.84375 0.14453 0.1875 0.34766 0.28125 0.60938 0.28125 0.26953 0 0.47266-0.09375 0.60938-0.28125 0.14453-0.19531 0.21875-0.47656 0.21875-0.84375 0-0.36328-0.074219-0.64062-0.21875-0.82812-0.13672-0.19531-0.33984-0.29688-0.60938-0.29688zm0-0.85938c0.65625 0 1.1641 0.17969 1.5312 0.53125 0.36328 0.34375 0.54688 0.82812 0.54688 1.4531s-0.18359 1.1172-0.54688 1.4688c-0.36719 0.34375-0.875 0.51562-1.5312 0.51562-0.64844 0-1.1562-0.17188-1.5312-0.51562-0.36719-0.35156-0.54688-0.84375-0.54688-1.4688s0.17969-1.1094 0.54688-1.4531c0.375-0.35156 0.88281-0.53125 1.5312-0.53125z"/>
  </symbol>
  <symbol id="r" overflow="visible">
   <path d="m3.0781-5.2656v0.79688h-0.67188c-0.17969 0-0.30469 0.03125-0.375 0.09375-0.0625 0.0625-0.09375 0.17188-0.09375 0.32812v0.26562h1.0469v0.85938h-1.0469v2.9219h-1.2031v-2.9219h-0.60938v-0.85938h0.60938v-0.26562c0-0.41406 0.11328-0.72266 0.34375-0.92188 0.22656-0.19531 0.58203-0.29688 1.0625-0.29688z"/>
  </symbol>
  <symbol id="q" overflow="visible">
   <path d="m0.64062-5.0469h1.4531l1.8281 3.4688v-3.4688h1.2344v5.0469h-1.4531l-1.8281-3.4688v3.4688h-1.2344z"/>
  </symbol>
  <symbol id="p" overflow="visible">
   <path d="m4.3906-2.3125v2.3125h-1.2188v-1.7656c0-0.32031-0.011719-0.54688-0.03125-0.67188-0.011719-0.125-0.03125-0.21875-0.0625-0.28125-0.054687-0.070312-0.12109-0.12891-0.20312-0.17188-0.074219-0.050781-0.16406-0.078125-0.26562-0.078125-0.26172 0-0.46484 0.10156-0.60938 0.29688-0.13672 0.19922-0.20312 0.46875-0.20312 0.8125v1.8594h-1.2188v-3.7812h1.2188v0.54688c0.17578-0.21875 0.36719-0.37891 0.57812-0.48438 0.20703-0.10156 0.42969-0.15625 0.67188-0.15625 0.4375 0 0.76953 0.13672 1 0.40625 0.22656 0.26172 0.34375 0.64844 0.34375 1.1562z"/>
  </symbol>
  <symbol id="o" overflow="visible">
   <path d="m0.64062-5.0469h2.1562c0.64453 0 1.1406 0.14844 1.4844 0.4375 0.34375 0.28125 0.51562 0.68359 0.51562 1.2031 0 0.53125-0.17188 0.94531-0.51562 1.2344-0.34375 0.28125-0.83984 0.42188-1.4844 0.42188h-0.85938v1.75h-1.2969zm1.2969 0.9375v1.4219h0.71875c0.25 0 0.44141-0.0625 0.57812-0.1875 0.14453-0.125 0.21875-0.30078 0.21875-0.53125 0-0.21875-0.074219-0.39062-0.21875-0.51562-0.13672-0.125-0.32812-0.1875-0.57812-0.1875z"/>
  </symbol>
  <symbol id="n" overflow="visible">
   <path d="m0.57812-3.7812h1.2188v3.7188c0 0.5-0.125 0.88281-0.375 1.1562-0.24219 0.26953-0.58984 0.40625-1.0469 0.40625h-0.60938v-0.79688h0.21875c0.22656 0 0.38281-0.054687 0.46875-0.15625 0.082031-0.10547 0.125-0.30859 0.125-0.60938zm0-1.4844h1.2188v1h-1.2188z"/>
  </symbol>
  <symbol id="m" overflow="visible">
   <path d="m3.6406-3.6719v0.98438c-0.16797-0.10156-0.33594-0.17969-0.5-0.23438-0.16797-0.0625-0.33984-0.09375-0.51562-0.09375-0.33594 0-0.59375 0.10156-0.78125 0.29688-0.1875 0.19922-0.28125 0.47656-0.28125 0.82812 0 0.35547 0.09375 0.63281 0.28125 0.82812 0.1875 0.19922 0.44531 0.29688 0.78125 0.29688 0.1875 0 0.36328-0.023437 0.53125-0.078125 0.17578-0.0625 0.33594-0.14844 0.48438-0.26562v1c-0.1875 0.074219-0.38281 0.125-0.57812 0.15625-0.19922 0.03125-0.39062 0.046875-0.57812 0.046875-0.6875 0-1.2266-0.17188-1.6094-0.51562-0.38672-0.35156-0.57812-0.84375-0.57812-1.4688s0.19141-1.1094 0.57812-1.4531c0.38281-0.35156 0.92188-0.53125 1.6094-0.53125 0.19531 0 0.39062 0.023438 0.57812 0.0625 0.19531 0.03125 0.39062 0.078125 0.57812 0.14062z"/>
  </symbol>
 </defs>
 <g>
  <path d="m490.79 487.37c-15.051 0-27.297 12.246-27.297 27.297 0 15.043 12.246 27.281 27.297 27.281 15.043 0 27.281-12.238 27.281-27.281 0-15.051-12.238-27.297-27.281-27.297z"/>
  <path d="m429.24 399.56c-15.051 0-27.297 12.246-27.297 27.297s12.246 27.297 27.297 27.297c15.051 0 27.293-12.246 27.293-27.297s-12.242-27.297-27.293-27.297z"/>
  <path d="m423.21 338.57c12.238 0 22.199-9.9648 22.199-22.211 0-12.238-9.957-22.195-22.199-22.195-12.246 0-22.211 9.957-22.211 22.195 0 12.25 9.9609 22.211 22.211 22.211z"/>
  <path d="m422.67 245.64c10.832 0 19.648-8.8125 19.648-19.648 0-10.832-8.8125-19.648-19.648-19.648-10.832 0-19.648 8.8125-19.648 19.648 0 10.836 8.8164 19.648 19.648 19.648z"/>
  <path d="m499.99 162.35c0 10.832 8.8125 19.648 19.648 19.648 10.832 0 19.648-8.8125 19.648-19.648 0-10.832-8.8125-19.648-19.648-19.648-10.836 0.003906-19.648 8.8164-19.648 19.648z"/>
  <path d="m598.54 217.88c0-10.832-8.8203-19.648-19.66-19.648-10.832 0-19.648 8.8125-19.648 19.648 0 10.832 8.8125 19.648 19.648 19.648 10.84-0.003907 19.66-8.8164 19.66-19.648z"/>
  <path d="m665.96 128.59c-10.832 0-19.648 8.8203-19.648 19.66 0 10.832 8.8125 19.648 19.648 19.648 10.832 0 19.648-8.8125 19.648-19.648 0-10.844-8.8125-19.66-19.648-19.66z"/>
  <path d="m586.48 329.45c10.832 0 19.648-8.8125 19.648-19.648 0-10.832-8.8125-19.648-19.648-19.648-10.832 0-19.648 8.8125-19.648 19.648 0 10.836 8.8164 19.648 19.648 19.648z"/>
  <path d="m637.23 410.65c10.832 0 19.648-8.8125 19.648-19.648 0-10.832-8.8125-19.648-19.648-19.648-10.832 0-19.648 8.8125-19.648 19.648s8.8125 19.648 19.648 19.648z"/>
  <path d="m645.62 311.39c13.117 0 23.789-10.672 23.789-23.789 0-13.125-10.672-23.805-23.789-23.805-13.125 0-23.805 10.68-23.805 23.805 0 13.117 10.68 23.789 23.805 23.789z"/>
  <path d="m672.6 474.58c13.117 0 23.789-10.68 23.789-23.805 0-13.117-10.672-23.789-23.789-23.789-13.125 0-23.805 10.672-23.805 23.789 0.003906 13.129 10.68 23.805 23.805 23.805z"/>
  <path d="m209.21 487.37c-15.043 0-27.281 12.246-27.281 27.297 0 15.043 12.238 27.281 27.281 27.281 15.051 0 27.297-12.238 27.297-27.281 0-15.051-12.246-27.297-27.297-27.297z"/>
  <path d="m270.76 399.56c-15.051 0-27.293 12.246-27.293 27.297s12.246 27.297 27.293 27.297c15.051 0 27.297-12.246 27.297-27.297s-12.246-27.297-27.297-27.297z"/>
  <path d="m276.79 294.16c-12.238 0-22.199 9.957-22.199 22.195 0 12.246 9.957 22.211 22.199 22.211 12.246 0 22.211-9.9648 22.211-22.211 0-12.238-9.9648-22.195-22.211-22.195z"/>
  <path d="m277.32 245.64c10.832 0 19.648-8.8125 19.648-19.648 0-10.832-8.8125-19.648-19.648-19.648-10.832 0-19.648 8.8125-19.648 19.648 0.003907 10.836 8.8164 19.648 19.648 19.648z"/>
  <path d="m200.01 162.35c0-10.832-8.8125-19.648-19.648-19.648-10.832 0-19.648 8.8125-19.648 19.648 0 10.832 8.8125 19.648 19.648 19.648 10.836 0 19.648-8.8125 19.648-19.648z"/>
  <path d="m140.77 217.88c0-10.832-8.8125-19.648-19.648-19.648-10.84 0-19.66 8.8125-19.66 19.648 0 10.832 8.8203 19.648 19.66 19.648 10.832-0.003907 19.648-8.8164 19.648-19.648z"/>
  <path d="m53.68 148.25c0-10.84-8.8125-19.66-19.648-19.66-10.832 0-19.648 8.8203-19.648 19.66 0 10.832 8.8125 19.648 19.648 19.648s19.648-8.8164 19.648-19.648z"/>
  <path d="m93.879 309.81c0 10.832 8.8125 19.648 19.648 19.648 10.832 0 19.648-8.8125 19.648-19.648 0-10.832-8.8125-19.648-19.648-19.648-10.836 0-19.648 8.8125-19.648 19.648z"/>
  <path d="m43.121 391c0 10.832 8.8125 19.648 19.648 19.648 10.832 0 19.648-8.8125 19.648-19.648 0-10.832-8.8125-19.648-19.648-19.648-10.832 0.003907-19.648 8.8164-19.648 19.648z"/>
  <path d="m54.375 263.79c-13.117 0-23.789 10.68-23.789 23.805 0 13.117 10.672 23.789 23.789 23.789 13.125 0 23.805-10.672 23.805-23.789 0-13.129-10.68-23.805-23.805-23.805z"/>
  <path d="m3.6055 450.77c0 13.125 10.672 23.805 23.789 23.805 13.125 0 23.805-10.68 23.805-23.805 0-13.117-10.68-23.789-23.805-23.789-13.117 0-23.789 10.672-23.789 23.789z"/>
  <path d="m699.16 277.32v-83.398c0-1.9961-1.0742-3.8398-2.8125-4.8242-1.7422-0.98438-3.875-0.95312-5.5859 0.078125-15.266 9.1875-39.738 0.20312-55.719-20.449-7.3086-9.4531-12.094-20.418-13.465-30.875-0.25781-1.9648-1.543-3.6406-3.375-4.3984-5.2539-2.1758-10.168-6.418-13.883-12.004-0.19531-0.28906-0.38672-0.57812-0.59766-0.92187-7.3125-11.82-6.7852-25.961 1.1523-30.875 7.8125-4.832 20.23 0.57812 27.684 12.062 1.3477 2.0781 3.9102 3.0078 6.2773 2.2812 15.574-4.7852 36.297 4.5859 50.395 22.801 1.875 2.4219 5.3555 2.8633 7.7734 0.99219 2.4219-1.875 2.8633-5.3555 0.99219-7.7734-15.762-20.363-39.219-31.25-58.453-27.594-11.094-14.371-28.273-19.762-40.504-12.191-11.438 7.082-14.578 23.434-8.4258 38.812h-44.699c-6.8164-4.1445-14.129-6.8906-21.418-8.0195-0.97656-1.9414-2.0977-3.8203-3.3477-5.6055-11.535-16.461-31.602-22.375-44.727-13.18-8.0391 5.6289-11.852 15.695-10.562 26.809h-17.656c-1.7383-17.047-13.727-30.289-28.223-30.289-12.52 0-23.164 9.8906-26.949 23.574-10.625-9.1602-21.676-17.777-33.145-25.84 37.91-24.535 80.617-43.312 127.07-55.828 61.074-16.43 130.5-22.555 206.34-18.203 3.0312 0.16406 5.6758-2.1602 5.8516-5.2148 0.17578-3.0547-2.1602-5.6758-5.2148-5.8516-77.031-4.4141-147.64 1.832-209.86 18.566-49.164 13.242-94.258 33.359-134.1 59.773-40.074-26.527-84.953-46.562-134.06-59.777-62.223-16.75-132.82-22.996-209.86-18.578-3.0547 0.17188-5.3906 2.793-5.2148 5.8477 0.17578 3.0547 2.7773 5.3828 5.8516 5.2188 75.844-4.3516 145.27 1.7734 206.34 18.203 65.559 17.641 123.36 47.695 171.96 89.375-15.27 3.0469-28.078 12.992-35 26.457-7.9219-15.414-23.555-26.227-41.766-27.34-1.6953-17.102-13.699-30.398-28.219-30.398-14.496 0-26.484 13.242-28.223 30.289h-17.656c1.2891-11.109-2.5234-21.176-10.562-26.809-13.129-9.1953-33.191-3.2852-44.73 13.184-1.25 1.7852-2.3672 3.6602-3.3438 5.6016-7.2891 1.1289-14.605 3.8789-21.418 8.0195l-44.711 0.003906c6.1523-15.398 3.0117-31.73-8.4219-38.812-12.227-7.5664-29.41-2.1758-40.504 12.191-19.234-3.6562-42.691 7.2305-58.453 27.594-1.875 2.4219-1.4297 5.9023 0.99219 7.7734 2.4219 1.875 5.9023 1.4297 7.7734-0.99219 14.098-18.215 34.824-27.59 50.395-22.801 2.3672 0.72656 4.9297-0.19922 6.2773-2.2812 7.4531-11.484 19.875-16.898 27.684-12.062 7.9375 4.9141 8.4688 19.055 1.1289 30.918-0.17969 0.30078-0.375 0.58984-0.60938 0.94141-3.6719 5.5234-8.5859 9.7656-13.84 11.941-1.832 0.75781-3.1172 2.4336-3.375 4.3984-1.3711 10.457-6.1523 21.422-13.465 30.875-15.977 20.656-40.453 29.641-55.719 20.449-1.7109-1.0312-3.8438-1.0586-5.5859-0.078125-1.7383 0.99219-2.8125 2.8359-2.8125 4.8359v83.398c0 2.5703 1.7695 4.8047 4.2734 5.3945 2.5039 0.58984 5.082-0.625 6.2305-2.9258 4.1719-8.3828 9.793-15.949 16.707-22.484 10.316-9.7656 22.918-16.594 36.438-19.742 1.8086-0.41797 3.2812-1.7148 3.9336-3.4531 2.8281-7.5391 6.6562-14.781 11.375-21.52 12.191-17.41 29.457-30.09 47.371-34.785 2.2266-0.58594 3.8633-2.4883 4.1055-4.7773 1.0117-9.5742 4.6758-19.09 10.598-27.527 4.6484-6.6367 10.285-12.109 16.766-16.27 6.7188-4.3281 14.016-6.9453 21.102-7.5781 2.0547-0.18359 3.8398-1.4922 4.6289-3.3984 0.94531-2.2773 2.1406-4.4609 3.5625-6.4922 7.8945-11.262 21.305-16.051 29.289-10.461 5.7305 4.0156 7.625 12.508 4.8242 21.641-1.0156 3.3086-2.5859 6.4961-4.6602 9.4609-1.0742 1.5312-2.3047 3.0078-3.6562 4.3828-1.4727 1.5039-1.9688 3.7109-1.2812 5.6992 4.8672 14.047 1.543 31.832-8.668 46.406-4.4883 6.3945-9.8984 11.715-16.082 15.816-1.9492 1.293-2.875 3.668-2.3203 5.9414 5.0078 20.375-0.61328 44.816-15.035 65.383-5.2617 7.5039-11.402 14.113-18.258 19.637-1.3789 1.1133-2.1445 2.8164-2.0547 4.5859 1.0898 22.188-7.8945 44.008-24.656 59.871-6.6914 6.3359-14.32 11.426-22.68 15.125-2.2695 1.0039-3.5938 3.3945-3.2422 5.8516 1.3359 9.3203-0.33984 18.621-4.8398 26.895-5.4688 10.039-14.508 17.41-25.449 20.754-1.4375 0.4375-2.6328 1.4414-3.3164 2.7812s-0.79297 2.8945-0.30859 4.3164c3.9414 11.492 2.875 24.188-2.9258 34.836-5.0742 9.3359-13.383 16.465-23.391 20.074-2.6406 0.95312-4.1562 3.7344-3.5195 6.4688 2.4102 10.359 0.93359 21.203-4.1523 30.539-6.0156 11.059-15.191 18.43-26.535 21.316-2.707 0.6875-4.4805 3.2852-4.1328 6.0586 0.34766 2.7734 2.7031 4.8555 5.5 4.8555h138.39c1.9492 0 3.7578-1.0234 4.7578-2.6992 1-1.6719 1.0469-3.7539 0.125-5.4688-1.6289-3.0273-2.457-6.1328-2.457-9.2344 0-10.473 9.1602-18.527 16.84-23.445 2.5703-1.6445 3.3281-5.0508 1.7031-7.625-4.7812-7.582-7.2109-15.668-7.2109-24.031 0-19.367 13.312-37.406 35.609-48.25 2.4492-1.1914 3.668-3.9805 2.8828-6.5859-2.4453-8.0977-3.6836-16.602-3.6836-25.277 0-24.242 9.918-47.07 26.531-61.062 1.918-1.6133 2.5117-4.3125 1.4531-6.582-4.1211-8.832-6.2969-18.879-6.2969-29.055 0-22.523 10.457-42.953 27.289-53.309 2.4453-1.5039 3.3359-4.625 2.0547-7.1953-3.3516-6.7188-5.125-14.426-5.125-22.285 0-13.02 4.8242-25.277 13.242-33.629 1.7227-1.707 2.1328-4.3398 1.0117-6.4922-2.3633-4.5469-3.6133-9.7227-3.6133-14.973 0-11.27 5.6875-21.613 14.848-26.992 1.2812-0.75391 2.207-1.9883 2.5703-3.4297s0.12891-2.9688-0.64453-4.2383c-2.4297-3.9844-3.8047-8.7422-3.9727-13.77-0.011719-0.35156-0.023438-0.71484-0.023438-1.0781 0-12.941 7.7891-23.473 17.359-23.473 9.5664 0 17.348 10.527 17.348 23.473 0 0.35938-0.011719 0.70703-0.023437 1.0898-0.1875 5.6094-1.9219 10.984-4.8789 15.137-1.7695 2.4844-1.1992 5.9336 1.2773 7.7148 7.9336 5.707 12.672 15.266 12.672 25.566 0 6.375-1.7969 12.496-5.1953 17.695-1.332 2.0391-1.1797 4.707 0.38281 6.5781 6.875 8.2539 10.66 19.199 10.66 30.816 0 12.281-4.375 24.074-12 32.352-1.9102 2.0742-1.9609 5.25-0.11719 7.3828 9.8789 11.422 15.32 26.711 15.32 43.055 0 15.109-4.7344 29.543-13.332 40.641-1.5195 1.9609-1.5508 4.6914-0.078125 6.6836 10.074 13.652 15.625 31.184 15.625 49.375 0 15.863-4.1211 31.023-11.914 43.844-1.2305 2.0195-1.0391 4.5977 0.47266 6.418 7.4844 9.0195 11.441 19.34 11.441 29.852 0 9.6367-3.3633 19.207-9.7266 27.68-1.7969 2.3945-1.3711 5.7812 0.96484 7.6523 5.3438 4.2812 11.711 11.188 11.711 19.77 0 3.082-0.82812 6.1914-2.4609 9.2461-0.91797 1.7188-0.86719 3.7891 0.13281 5.4609s2.8047 2.6953 4.7539 2.6953h53.898c1.9492 0 3.7539-1.0234 4.7539-2.6953s1.0508-3.7461 0.13281-5.4609c-1.6367-3.0547-2.4609-6.168-2.4609-9.2461 0-8.582 6.3672-15.488 11.711-19.77 2.3359-1.8711 2.7617-5.2578 0.96484-7.6523-6.3633-8.4727-9.7266-18.043-9.7266-27.68 0-10.512 3.957-20.832 11.441-29.852 1.5117-1.8203 1.6992-4.3984 0.47266-6.418-7.793-12.816-11.914-27.98-11.914-43.844 0-18.188 5.5508-35.723 15.625-49.375 1.4727-1.9961 1.4414-4.7266-0.078125-6.6836-8.5977-11.098-13.332-25.527-13.332-40.641 0-16.34 5.4414-31.633 15.32-43.055 1.8438-2.1328 1.793-5.3086-0.11719-7.3828-7.625-8.2773-12-20.07-12-32.352 0-11.617 3.7852-22.562 10.66-30.816 1.5586-1.8711 1.7109-4.5391 0.38281-6.5781-3.3984-5.1992-5.1953-11.32-5.1953-17.695 0-10.301 4.7383-19.859 12.672-25.566 2.4766-1.7812 3.0469-5.2305 1.2773-7.7148-2.957-4.1523-4.6875-9.5273-4.8789-15.164-0.011718-0.35938-0.023437-0.70312-0.023437-1.0625 0-12.941 7.7812-23.473 17.348-23.473 9.5742 0 17.359 10.527 17.359 23.473 0 0.36328-0.011719 0.72656-0.027344 1.0898-0.16797 5.0195-1.5391 9.7773-3.9727 13.758-0.77344 1.2695-1.0078 2.793-0.64453 4.2383 0.36328 1.4414 1.2891 2.6758 2.5703 3.4297 9.1562 5.3789 14.848 15.723 14.848 26.992 0 5.2461-1.25 10.422-3.6133 14.973-1.1211 2.1523-0.71094 4.7812 1.0117 6.4922 8.4141 8.3555 13.242 20.609 13.242 33.629 0 7.8594-1.7734 15.566-5.125 22.285-1.2812 2.5703-0.39062 5.6914 2.0547 7.1953 16.832 10.355 27.289 30.785 27.289 53.309 0 10.176-2.1758 20.223-6.2969 29.055-1.0586 2.2695-0.46484 4.9688 1.4531 6.582 16.613 13.996 26.531 36.82 26.531 61.062 0 8.6758-1.2383 17.18-3.6836 25.277-0.78516 2.6055 0.43359 5.3984 2.8828 6.5859 22.297 10.844 35.609 28.883 35.609 48.25 0 8.3672-2.4258 16.453-7.2109 24.031-1.625 2.5781-0.86719 5.9844 1.7031 7.625 7.6836 4.9141 16.84 12.973 16.84 23.445 0 3.1016-0.82422 6.207-2.457 9.2344-0.92578 1.7148-0.87891 3.7969 0.125 5.4688 1 1.6719 2.8047 2.6992 4.7578 2.6992l138.39 0.007812c2.793 0 5.1523-2.082 5.5-4.8555 0.34766-2.7734-1.4258-5.3711-4.1328-6.0586-11.344-2.8867-20.523-10.258-26.539-21.32-5.0859-9.332-6.5625-20.18-4.1523-30.539 0.63672-2.7383-0.87891-5.5156-3.5195-6.4688-10.008-3.6094-18.316-10.738-23.395-20.078-5.7969-10.645-6.8633-23.34-2.9219-34.832 0.48828-1.4219 0.375-2.9805-0.30859-4.3164-0.68359-1.3398-1.8789-2.3398-3.3164-2.7812-10.938-3.3438-19.977-10.715-25.445-20.75-4.5-8.2773-6.1758-17.578-4.8398-26.898 0.35156-2.457-0.97266-4.8477-3.2422-5.8516-8.3594-3.6992-15.988-8.7891-22.684-15.125-16.762-15.859-25.746-37.68-24.656-59.867 0.085938-1.7695-0.67578-3.4766-2.0547-4.5859-6.8516-5.5234-12.996-12.129-18.258-19.637-14.418-20.566-20.039-45.012-15.035-65.383 0.55859-2.2734-0.37109-4.6484-2.3203-5.9414-6.1836-4.1016-11.594-9.4219-16.078-15.812-10.215-14.578-13.535-32.363-8.668-46.41 0.6875-1.9883 0.19141-4.1953-1.2812-5.6992-1.3516-1.375-2.582-2.8516-3.6523-4.375-2.0781-2.9766-3.6484-6.1641-4.6641-9.4688-2.8008-9.1367-0.91016-17.629 4.8203-21.645 7.9883-5.5938 21.395-0.80469 29.285 10.457 1.4219 2.0352 2.6211 4.2188 3.5664 6.4961 0.78906 1.9062 2.5742 3.2188 4.6289 3.3984 7.082 0.62891 14.379 3.25 21.105 7.582 6.4727 4.1562 12.109 9.6289 16.762 16.27 5.918 8.4297 9.582 17.949 10.594 27.52 0.24219 2.293 1.875 4.1953 4.1055 4.7773 17.914 4.6953 35.18 17.375 47.371 34.789 4.7188 6.7383 8.5469 13.977 11.375 21.516 0.65234 1.7344 2.125 3.0312 3.9336 3.4531 13.52 3.1484 26.121 9.9766 36.441 19.746 6.9102 6.5312 12.531 14.094 16.703 22.48 1.1445 2.3047 3.7266 3.5195 6.2305 2.9258 2.5156-0.58984 4.2852-2.8242 4.2852-5.3945zm-343.62 251.96c0 3.0625-2.4805 5.543-5.543 5.543s-5.543-2.4805-5.543-5.543v-334.74c0-3.0625 2.4805-5.543 5.543-5.543s5.543 2.4805 5.543 5.543z"/>
  <use x="0.835937" y="580.785156" xlink:href="#v"/>
  <use x="5.917969" y="580.785156" xlink:href="#d"/>
  <use x="9.335937" y="580.785156" xlink:href="#b"/>
  <use x="14.035156" y="580.785156" xlink:href="#l"/>
  <use x="18.710938" y="580.785156" xlink:href="#a"/>
  <use x="22.019531" y="580.785156" xlink:href="#b"/>
  <use x="26.71875" y="580.785156" xlink:href="#f"/>
  <use x="34.089844" y="580.785156" xlink:href="#k"/>
  <use x="39.050781" y="580.785156" xlink:href="#e"/>
  <use x="45.976562" y="580.785156" xlink:href="#j"/>
  <use x="51.339844" y="580.785156" xlink:href="#i"/>
  <use x="58.558594" y="580.785156" xlink:href="#b"/>
  <use x="63.257812" y="580.785156" xlink:href="#a"/>
  <use x="66.570312" y="580.785156" xlink:href="#h"/>
  <use x="71.5" y="580.785156" xlink:href="#e"/>
  <use x="76.015625" y="580.785156" xlink:href="#u"/>
  <use x="80.140625" y="580.785156" xlink:href="#a"/>
  <use x="85.863281" y="580.785156" xlink:href="#t"/>
  <use x="90.851562" y="580.785156" xlink:href="#a"/>
  <use x="94.164062" y="580.785156" xlink:href="#g"/>
  <use x="99.097656" y="580.785156" xlink:href="#f"/>
  <use x="104.054687" y="580.785156" xlink:href="#s"/>
  <use x="106.429687" y="580.785156" xlink:href="#c"/>
  <use x="0.835937" y="587.710938" xlink:href="#r"/>
  <use x="3.847656" y="587.710938" xlink:href="#d"/>
  <use x="7.265625" y="587.710938" xlink:href="#c"/>
  <use x="12.023437" y="587.710938" xlink:href="#i"/>
  <use x="21.65625" y="587.710938" xlink:href="#a"/>
  <use x="24.96875" y="587.710938" xlink:href="#h"/>
  <use x="29.898438" y="587.710938" xlink:href="#b"/>
  <use x="37.011719" y="587.710938" xlink:href="#q"/>
  <use x="42.808594" y="587.710938" xlink:href="#c"/>
  <use x="47.566406" y="587.710938" xlink:href="#g"/>
  <use x="52.5" y="587.710938" xlink:href="#p"/>
  <use x="59.84375" y="587.710938" xlink:href="#o"/>
  <use x="64.921875" y="587.710938" xlink:href="#d"/>
  <use x="68.335938" y="587.710938" xlink:href="#c"/>
  <use x="73.097656" y="587.710938" xlink:href="#n"/>
  <use x="75.472656" y="587.710938" xlink:href="#b"/>
  <use x="80.171875" y="587.710938" xlink:href="#m"/>
  <use x="84.277344" y="587.710938" xlink:href="#a"/>
 </g>
</svg>
