<?xml version="1.0" standalone="no"?>
<!DOCTYPE svg PUBLIC "-//W3C//DTD SVG 20010904//EN"
 "http://www.w3.org/TR/2001/REC-SVG-20010904/DTD/svg10.dtd">
<svg version="1.0" xmlns="http://www.w3.org/2000/svg"
 width="512.000000pt" height="512.000000pt" viewBox="0 0 512.000000 512.000000"
 preserveAspectRatio="xMidYMid meet">
<metadata>
Created by potrace 1.14, written by Peter Selinger 2001-2017
</metadata>
<g transform="translate(0.000000,512.000000) scale(0.100000,-0.100000)"
fill="#000000" stroke="none">
<path d="M2267 5014 c-416 -48 -839 -224 -1152 -478 -27 -23 -61 -50 -75 -61
-60 -48 -261 -257 -321 -335 -130 -168 -190 -264 -290 -467 -111 -224 -200
-526 -226 -758 -10 -89 -10 -401 -1 -480 87 -718 512 -1390 1121 -1768 157
-97 379 -197 542 -245 83 -25 244 -61 300 -68 22 -3 45 -7 52 -9 53 -17 384
-25 528 -12 108 10 204 23 235 32 8 2 27 7 43 10 61 12 78 16 163 41 126 36
301 107 424 171 101 52 328 198 380 243 61 53 70 60 76 60 3 0 3 -180 0 -400
l-6 -400 264 0 263 0 2 202 c2 112 4 282 6 378 2 96 6 379 10 628 4 250 7 478
9 508 l1 54 -66 -1 c-37 -1 -72 1 -77 5 -6 4 -9 21 -7 39 l4 32 -34 -39 -33
-39 -153 -4 c-85 -1 -265 -4 -400 -6 l-246 -4 101 103 c56 56 221 224 368 373
147 149 266 271 265 271 -2 0 -165 -112 -374 -256 -150 -103 -285 -196 -368
-253 -105 -71 -139 -95 -145 -101 -3 -3 -48 -34 -100 -69 -65 -44 -109 -67
-138 -71 -23 -4 -45 -4 -47 0 -3 4 41 38 98 76 138 93 125 81 245 244 59 80
109 147 112 150 3 3 17 21 30 40 24 35 216 295 248 337 9 12 24 32 32 44 8 12
33 45 54 73 22 28 44 58 49 66 6 8 -121 -118 -282 -280 -763 -771 -747 -756
-788 -758 l-38 -3 30 31 c17 17 86 88 154 157 l123 125 90 187 c50 102 107
222 128 266 21 44 83 174 139 288 55 115 101 211 101 215 0 4 -77 -105 -160
-228 -221 -328 -329 -494 -324 -501 3 -5 1 -8 -4 -7 -6 2 -45 -49 -87 -112
-42 -63 -81 -122 -88 -130 -7 -9 -84 -124 -172 -255 -88 -132 -162 -242 -165
-245 -3 -3 -14 -18 -24 -35 -10 -16 27 14 82 69 l100 99 0 -38 c0 -34 -8 -46
-69 -107 -38 -37 -67 -68 -65 -68 3 0 35 21 71 46 l65 46 0 -31 c0 -25 -8 -37
-42 -61 -41 -30 -39 -34 14 -30 l28 1 -2 -96 c0 -52 2 -98 6 -102 3 -4 111 -5
239 -4 731 9 662 10 636 -11 -231 -184 -450 -303 -679 -371 -94 -28 -130 -37
-175 -44 -16 -2 -48 -9 -70 -14 -72 -18 -389 -20 -505 -3 -403 58 -763 242
-1046 537 -341 354 -533 807 -538 1272 -3 253 67 542 191 795 32 63 60 117 63
120 3 3 18 27 34 53 41 72 166 233 238 307 287 298 636 480 1042 543 118 18
386 19 509 2 54 -8 101 -17 105 -19 4 -2 27 -7 51 -11 71 -10 248 -72 357
-124 86 -41 258 -142 274 -161 3 -3 34 -28 69 -54 35 -27 105 -91 157 -143
237 -237 403 -523 510 -878 15 -49 30 -93 34 -98 3 -4 60 4 126 19 65 14 128
27 139 30 89 17 221 48 228 54 4 4 4 18 -2 31 -5 13 -26 80 -46 149 -94 321
-243 608 -452 870 -63 80 -228 251 -318 331 -74 66 -249 188 -335 235 -19 10
-42 24 -50 29 -31 22 -238 114 -325 145 -78 27 -205 63 -299 84 -28 7 -28 7
-10 27 18 20 17 20 -307 18 -183 -1 -371 -8 -432 -15z"/>
<path d="M2551 3458 c-1 -35 -4 -81 -6 -103 -1 -22 -6 -94 -10 -160 -4 -66 -8
-145 -10 -175 -2 -30 -6 -107 -10 -170 -4 -63 -8 -138 -10 -166 -13 -200 -18
-313 -17 -339 0 -16 15 -91 31 -165 17 -74 31 -144 31 -154 0 -29 17 -7 24 29
2 17 12 62 21 100 9 39 18 81 21 95 3 14 9 41 13 60 4 20 6 44 5 55 -2 11 -4
48 -5 83 -1 34 -6 62 -12 62 -5 0 -5 6 2 13 6 8 9 16 7 18 -2 2 -7 58 -10 124
-4 66 -9 152 -11 190 -8 121 -14 216 -20 330 -3 61 -8 135 -10 165 -2 30 -5
81 -6 113 -3 76 -15 73 -18 -5z"/>
<path d="M2877 3202 c-21 -97 -40 -188 -43 -202 -3 -14 -7 -32 -9 -40 -2 -8
-7 -29 -10 -47 -3 -17 -14 -69 -25 -115 -10 -46 -22 -98 -25 -117 -3 -19 -8
-37 -10 -41 -3 -4 -7 -22 -9 -41 -3 -19 -10 -51 -15 -71 -5 -21 -7 -38 -5 -38
3 0 0 -8 -5 -17 -5 -10 -12 -34 -15 -53 -7 -44 -10 -58 -31 -145 -15 -64 -29
-130 -41 -195 -3 -14 -7 -33 -10 -42 -3 -9 -7 -25 -9 -36 -2 -11 -13 -64 -25
-118 -50 -225 -69 -318 -67 -321 4 -3 2 -8 148 337 61 146 122 288 134 315 42
96 39 81 50 240 3 61 8 126 10 145 2 19 6 80 10 135 3 55 8 120 10 145 2 25 7
86 10 135 3 50 7 115 10 145 9 104 16 220 13 220 -2 0 -20 -80 -41 -178z"/>
<path d="M2205 3310 c2 -36 7 -96 9 -135 3 -38 8 -113 11 -165 4 -52 8 -115
11 -139 2 -25 6 -86 9 -135 3 -50 8 -109 10 -131 2 -22 7 -87 10 -145 9 -145
10 -151 27 -190 45 -103 83 -191 144 -337 40 -93 72 -156 76 -150 25 40 18
118 -28 312 -3 11 -7 34 -10 50 -3 17 -7 37 -10 45 -5 13 -13 50 -30 140 -3
14 -14 61 -24 105 -11 44 -26 114 -35 155 -9 41 -18 84 -20 95 -3 11 -9 43
-15 70 -6 28 -15 68 -20 90 -5 22 -28 126 -50 230 -22 105 -47 215 -55 245
l-14 55 4 -65z"/>
<path d="M3296 3232 c-10 -26 -32 -75 -47 -110 -16 -35 -29 -66 -29 -68 0 -3
-9 -24 -19 -47 -10 -23 -38 -87 -61 -142 -23 -55 -48 -113 -56 -130 -7 -16
-54 -127 -104 -245 -50 -118 -95 -224 -100 -235 -46 -97 -289 -679 -286 -682
2 -3 10 6 17 19 22 39 30 51 154 233 136 201 152 224 162 245 7 15 17 28 41
55 6 7 12 18 12 24 0 6 5 11 10 11 6 0 10 7 10 15 0 8 5 15 10 15 6 0 10 5 10
12 0 6 6 19 13 27 12 14 33 76 41 121 1 8 9 40 18 70 9 30 32 116 52 190 19
74 67 254 106 399 39 145 69 265 68 267 -2 1 -12 -18 -22 -44z"/>
<path d="M1811 3230 c5 -19 23 -87 40 -150 17 -63 51 -189 76 -280 25 -91 47
-176 49 -190 3 -14 9 -38 14 -55 6 -16 10 -32 10 -35 0 -3 7 -27 15 -55 9 -27
18 -59 20 -70 21 -117 39 -151 218 -420 99 -148 183 -272 186 -275 3 -3 11
-14 17 -24 6 -11 15 -21 22 -24 18 -6 6 37 -44 149 -25 57 -47 109 -48 114 -1
6 -14 36 -29 68 -15 32 -27 61 -27 64 0 4 -9 25 -19 47 -11 23 -29 64 -41 91
-11 28 -26 61 -32 75 -6 14 -14 34 -19 45 -8 21 -43 101 -64 150 -8 17 -52
122 -100 235 -48 113 -92 219 -100 235 -7 17 -25 58 -39 93 -15 34 -40 92 -56
128 -17 35 -30 68 -30 72 0 5 -7 17 -15 28 -13 17 -13 16 -4 -16z"/>
<path d="M1449 3053 c16 -32 57 -116 91 -188 34 -71 88 -184 120 -250 130
-270 220 -458 220 -462 0 -2 133 -137 296 -301 l296 -297 -114 168 c-62 92
-118 176 -124 187 -6 11 -18 28 -27 38 -10 10 -17 23 -17 28 0 6 -8 19 -17 30
-10 11 -22 28 -28 37 -5 9 -47 71 -92 137 -46 66 -83 125 -83 130 0 6 -4 10
-9 10 -5 0 -12 8 -15 18 -4 10 -14 27 -24 38 -9 11 -124 180 -255 377 -132
196 -241 357 -243 357 -2 0 9 -26 25 -57z"/>
<path d="M1087 2870 c5 -8 29 -40 52 -70 22 -30 45 -59 49 -65 4 -5 25 -35 47
-65 22 -30 42 -57 45 -60 3 -3 21 -27 39 -55 19 -27 38 -52 41 -55 3 -3 55
-72 115 -155 60 -82 113 -154 118 -160 4 -5 36 -48 71 -95 51 -69 80 -96 152
-145 49 -32 91 -62 94 -65 3 -3 39 -27 80 -55 41 -27 77 -52 80 -55 3 -3 26
-19 52 -35 27 -17 48 -33 48 -37 0 -5 6 -8 13 -8 7 0 22 -8 33 -17 17 -16 71
-53 169 -118 16 -11 -137 149 -342 355 -204 206 -505 510 -669 675 -163 165
-293 293 -287 285z"/>
<path d="M957 2412 c98 -99 271 -275 385 -391 114 -116 243 -237 286 -269 139
-103 311 -181 477 -217 71 -15 254 -32 245 -22 -14 14 -111 77 -120 77 -5 0
-10 4 -10 8 0 5 -28 27 -62 50 -35 22 -112 75 -173 117 -100 69 -150 103 -285
195 -25 16 -54 37 -65 44 -64 46 -276 192 -324 224 -31 20 -58 39 -61 43 -4 5
-64 46 -109 74 -9 6 -18 12 -21 15 -3 3 -25 19 -50 36 -25 16 -94 64 -155 105
-60 42 -116 79 -123 83 -7 4 67 -73 165 -172z"/>
</g>
</svg>
